<svg width="891" height="336" viewBox="0 0 891 336" fill="none" xmlns="http://www.w3.org/2000/svg">
<g opacity="0.45" filter="url(#filter0_b_91_662)">
<mask id="path-1-inside-1_91_662" fill="white">
<path fill-rule="evenodd" clip-rule="evenodd" d="M43.6153 2.99103H850.435V130.417C844.593 130.425 838.809 131.48 833.412 133.524C827.994 135.575 823.072 138.582 818.925 142.372C814.779 146.162 811.489 150.661 809.245 155.613C807.001 160.566 805.846 165.873 805.846 171.233C805.846 176.593 807.001 181.901 809.245 186.853C811.489 191.805 814.779 196.304 818.925 200.094C823.072 203.885 827.994 206.891 833.412 208.942C838.809 210.986 844.593 212.041 850.435 212.049V332.507H43.6153L43.6152 211.054C49.0701 211.054 54.4716 209.998 59.5113 207.947C64.551 205.896 69.1302 202.889 72.9874 199.099C76.8446 195.309 79.9043 190.809 81.9918 185.857C84.0793 180.905 85.1537 175.598 85.1537 170.238C85.1537 164.878 84.0793 159.57 81.9918 154.618C79.9043 149.666 76.8446 145.166 72.9874 141.376C69.1302 137.586 64.551 134.58 59.5113 132.528C54.4716 130.477 49.0701 129.421 43.6152 129.421L43.6153 2.99103Z"/>
</mask>
<path fill-rule="evenodd" clip-rule="evenodd" d="M43.6153 2.99103H850.435V130.417C844.593 130.425 838.809 131.48 833.412 133.524C827.994 135.575 823.072 138.582 818.925 142.372C814.779 146.162 811.489 150.661 809.245 155.613C807.001 160.566 805.846 165.873 805.846 171.233C805.846 176.593 807.001 181.901 809.245 186.853C811.489 191.805 814.779 196.304 818.925 200.094C823.072 203.885 827.994 206.891 833.412 208.942C838.809 210.986 844.593 212.041 850.435 212.049V332.507H43.6153L43.6152 211.054C49.0701 211.054 54.4716 209.998 59.5113 207.947C64.551 205.896 69.1302 202.889 72.9874 199.099C76.8446 195.309 79.9043 190.809 81.9918 185.857C84.0793 180.905 85.1537 175.598 85.1537 170.238C85.1537 164.878 84.0793 159.57 81.9918 154.618C79.9043 149.666 76.8446 145.166 72.9874 141.376C69.1302 137.586 64.551 134.58 59.5113 132.528C54.4716 130.477 49.0701 129.421 43.6152 129.421L43.6153 2.99103Z" fill="url(#paint0_linear_91_662)"/>
<path d="M850.435 2.99103H851.435V1.99103H850.435V2.99103ZM43.6153 2.99103V1.99103H42.6153L42.6153 2.99103L43.6153 2.99103ZM850.435 130.417L850.436 131.417L851.435 131.416V130.417H850.435ZM833.412 133.524L833.766 134.459L833.766 134.459L833.412 133.524ZM818.925 142.372L818.25 141.634L818.25 141.634L818.925 142.372ZM809.245 155.613L808.335 155.201L808.335 155.201L809.245 155.613ZM809.245 186.853L808.335 187.266L808.335 187.266L809.245 186.853ZM833.412 208.942L833.766 208.007L833.766 208.007L833.412 208.942ZM850.435 212.049H851.435V211.051L850.436 211.049L850.435 212.049ZM850.435 332.507V333.507H851.435V332.507H850.435ZM43.6153 332.507L42.6153 332.507L42.6153 333.507H43.6153V332.507ZM43.6152 211.054V210.054H42.6152L42.6152 211.054L43.6152 211.054ZM59.5113 207.947L59.8883 208.873L59.8883 208.873L59.5113 207.947ZM72.9874 199.099L73.6882 199.812L73.6882 199.812L72.9874 199.099ZM81.9918 154.618L82.9132 154.23L82.9132 154.23L81.9918 154.618ZM72.9874 141.376L73.6882 140.663L73.6882 140.663L72.9874 141.376ZM59.5113 132.528L59.1343 133.455L59.1343 133.455L59.5113 132.528ZM43.6152 129.421L42.6152 129.421L42.6152 130.421H43.6152V129.421ZM850.435 1.99103H43.6153V3.99103H850.435V1.99103ZM851.435 130.417V2.99103H849.435V130.417H851.435ZM833.766 134.459C839.049 132.459 844.713 131.425 850.436 131.417L850.433 129.417C844.473 129.425 838.569 130.502 833.058 132.589L833.766 134.459ZM819.6 143.11C823.65 139.408 828.463 136.467 833.766 134.459L833.058 132.589C827.526 134.683 822.493 137.755 818.25 141.634L819.6 143.11ZM810.156 156.026C812.343 151.202 815.55 146.812 819.6 143.11L818.25 141.634C814.007 145.512 810.636 150.121 808.335 155.201L810.156 156.026ZM806.846 171.233C806.846 166.018 807.97 160.851 810.156 156.026L808.335 155.201C806.033 160.281 804.846 165.729 804.846 171.233H806.846ZM810.156 186.44C807.97 181.616 806.846 176.449 806.846 171.233H804.846C804.846 176.738 806.033 182.186 808.335 187.266L810.156 186.44ZM819.6 199.356C815.55 195.654 812.343 191.265 810.156 186.44L808.335 187.266C810.636 192.345 814.007 196.954 818.25 200.833L819.6 199.356ZM833.766 208.007C828.463 205.999 823.65 203.058 819.6 199.356L818.25 200.833C822.493 204.711 827.526 207.783 833.058 209.878L833.766 208.007ZM850.436 211.049C844.713 211.042 839.049 210.007 833.766 208.007L833.058 209.878C838.569 211.964 844.473 213.041 850.433 213.049L850.436 211.049ZM851.435 332.507V212.049H849.435V332.507H851.435ZM43.6153 333.507H850.435V331.507H43.6153V333.507ZM42.6152 211.054L42.6153 332.507L44.6153 332.507L44.6152 211.054L42.6152 211.054ZM59.1343 207.021C54.2147 209.023 48.9412 210.054 43.6152 210.054V212.054C49.1991 212.054 54.7286 210.973 59.8883 208.873L59.1343 207.021ZM72.2865 198.386C68.5229 202.084 64.054 205.018 59.1343 207.021L59.8883 208.873C65.048 206.773 69.7374 203.694 73.6882 199.812L72.2865 198.386ZM81.0703 185.469C79.0345 190.298 76.05 194.688 72.2865 198.386L73.6882 199.812C77.6391 195.93 80.7741 191.32 82.9132 186.246L81.0703 185.469ZM84.1537 170.238C84.1537 175.464 83.1061 180.639 81.0703 185.469L82.9132 186.246C85.0524 181.171 86.1537 175.731 86.1537 170.238H84.1537ZM81.0703 155.006C83.1061 159.836 84.1537 165.011 84.1537 170.238H86.1537C86.1537 164.744 85.0524 159.304 82.9132 154.23L81.0703 155.006ZM72.2865 142.09C76.05 145.788 79.0345 150.177 81.0703 155.006L82.9132 154.23C80.7741 149.155 77.6391 144.545 73.6882 140.663L72.2865 142.09ZM59.1343 133.455C64.054 135.457 68.5229 138.391 72.2865 142.09L73.6882 140.663C69.7374 136.781 65.048 133.702 59.8883 131.602L59.1343 133.455ZM43.6152 130.421C48.9412 130.421 54.2147 131.452 59.1343 133.455L59.8883 131.602C54.7286 129.502 49.1991 128.421 43.6152 128.421V130.421ZM42.6153 2.99103L42.6152 129.421L44.6152 129.421L44.6153 2.99103L42.6153 2.99103Z" fill="#3B795B" fill-opacity="0.3" mask="url(#path-1-inside-1_91_662)"/>
</g>
<path d="M848.423 129.417C836.879 129.417 825.8 133.813 817.625 141.65C809.448 149.488 804.846 160.129 804.846 171.233C804.846 182.337 809.448 192.978 817.625 200.816C825.8 208.653 836.879 213.049 848.423 213.049" stroke="#30C952" stroke-width="2"/>
<path d="M42.5769 128.421C54.1209 128.421 65.2002 132.817 73.3753 140.654C81.552 148.493 86.1538 159.133 86.1538 170.238C86.1538 181.342 81.552 191.982 73.3753 199.821C65.2002 207.658 54.1209 212.054 42.5769 212.054" stroke="#30C952" stroke-width="2"/>
<path d="M42.5771 2.49329H848.423" stroke="url(#paint1_radial_91_662)" stroke-width="3"/>
<path d="M42.5771 2.49329H848.423" stroke="url(#paint2_radial_91_662)" stroke-width="3"/>
<path d="M42.5771 334L851.539 334" stroke="url(#paint3_radial_91_662)" stroke-width="3"/>
<path d="M42.5771 334L851.539 334" stroke="url(#paint4_radial_91_662)" stroke-width="3"/>
<path d="M849.981 1L849.981 112.498L849.981 130.417M849.981 332.507L849.981 311.601L849.981 212.049" stroke="url(#paint5_radial_91_662)" stroke-width="3"/>
<path d="M849.981 1L849.981 112.498L849.981 130.417M849.981 332.507L849.981 311.601L849.981 212.049" stroke="url(#paint6_radial_91_662)" stroke-width="3"/>
<path d="M44.1343 3.98657L44.1343 28.8745L44.1343 128.426M44.1343 332.507L44.1343 311.601L44.1343 212.049" stroke="url(#paint7_radial_91_662)" stroke-width="3"/>
<path d="M44.1343 3.98657L44.1343 28.8745L44.1343 128.426M44.1343 332.507L44.1343 311.601L44.1343 212.049" stroke="url(#paint8_radial_91_662)" stroke-width="3"/>
<defs>
<filter id="filter0_b_91_662" x="31.4357" y="-9.18846" width="831.178" height="353.875" filterUnits="userSpaceOnUse" color-interpolation-filters="sRGB">
<feFlood flood-opacity="0" result="BackgroundImageFix"/>
<feGaussianBlur in="BackgroundImageFix" stdDeviation="6.08974"/>
<feComposite in2="SourceAlpha" operator="in" result="effect1_backgroundBlur_91_662"/>
<feBlend mode="normal" in="SourceGraphic" in2="effect1_backgroundBlur_91_662" result="shape"/>
</filter>
<linearGradient id="paint0_linear_91_662" x1="43.6152" y1="24.4812" x2="655.729" y2="506.057" gradientUnits="userSpaceOnUse">
<stop stop-color="#59B086" stop-opacity="0.6"/>
<stop offset="1" stop-color="#59B086" stop-opacity="0.15"/>
</linearGradient>
<radialGradient id="paint1_radial_91_662" cx="0" cy="0" r="1" gradientUnits="userSpaceOnUse" gradientTransform="translate(421.997 -110.007) rotate(78.2003) scale(117.483 93337.3)">
<stop stop-color="#30C952"/>
<stop offset="0.604167" stop-color="#30C952" stop-opacity="0"/>
</radialGradient>
<radialGradient id="paint2_radial_91_662" cx="0" cy="0" r="1" gradientUnits="userSpaceOnUse" gradientTransform="translate(-165.395 -197.043) rotate(-0.657058) scale(1044.52 582637)">
<stop stop-color="#30C952"/>
<stop offset="0.604167" stop-color="#828883" stop-opacity="0.22"/>
<stop offset="1" stop-color="#30C952"/>
</radialGradient>
<radialGradient id="paint3_radial_91_662" cx="0" cy="0" r="1" gradientUnits="userSpaceOnUse" gradientTransform="translate(423.454 222.005) rotate(78.1041) scale(116.997 93665.6)">
<stop stop-color="#30C952"/>
<stop offset="0.604167" stop-color="#30C952" stop-opacity="0"/>
</radialGradient>
<radialGradient id="paint4_radial_91_662" cx="0" cy="0" r="1" gradientUnits="userSpaceOnUse" gradientTransform="translate(-166.204 135.359) rotate(-0.651584) scale(1048.56 580025)">
<stop stop-color="#30C952"/>
<stop offset="0.604167" stop-color="#828883" stop-opacity="0.22"/>
<stop offset="1" stop-color="#30C952"/>
</radialGradient>
<radialGradient id="paint5_radial_91_662" cx="0" cy="0" r="1" gradientUnits="userSpaceOnUse" gradientTransform="translate(961.595 156.855) rotate(175.043) scale(114.524 39129.4)">
<stop stop-color="#30C952"/>
<stop offset="0.604167" stop-color="#30C952" stop-opacity="0"/>
</radialGradient>
<radialGradient id="paint6_radial_91_662" cx="0" cy="0" r="1" gradientUnits="userSpaceOnUse" gradientTransform="translate(1047.94 -85.0929) rotate(88.4177) scale(430.381 577873)">
<stop stop-color="#30C952"/>
<stop offset="0.604167" stop-color="#4CFF74" stop-opacity="0.22"/>
<stop offset="1" stop-color="#30C952"/>
</radialGradient>
<radialGradient id="paint7_radial_91_662" cx="0" cy="0" r="1" gradientUnits="userSpaceOnUse" gradientTransform="translate(155.752 156.864) rotate(175.043) scale(114.524 39129.4)">
<stop stop-color="#30C952"/>
<stop offset="0.604167" stop-color="#30C952" stop-opacity="0"/>
</radialGradient>
<radialGradient id="paint8_radial_91_662" cx="0" cy="0" r="1" gradientUnits="userSpaceOnUse" gradientTransform="translate(242.007 -85.0924) rotate(88.4177) scale(430.381 577872)">
<stop stop-color="#30C952"/>
<stop offset="0.604167" stop-color="#4CFF74" stop-opacity="0.22"/>
<stop offset="1" stop-color="#30C952"/>
</radialGradient>
</defs>
</svg>
